<svg width="400" height="462" viewBox="0 0 400 462" fill="none" xmlns="http://www.w3.org/2000/svg">
<path d="M377.509 368.092C255.649 368.81 128.709 369.642 11.179 369.478C9.74097 369.478 9.53897 372.083 11.009 372.093C132.763 372.896 255.479 371.631 377.271 370.938C378.901 370.933 379.093 368.082 377.509 368.092Z" fill="#191919"/>
<path d="M310.599 247.526C310.533 249.218 310.101 250.863 309.343 252.313C308.543 253.618 309.569 254.854 310.691 253.724C311.364 252.887 311.838 251.863 312.068 250.752C312.298 249.642 312.276 248.481 312.003 247.383C311.934 247.227 311.827 247.099 311.694 247.014C311.562 246.929 311.41 246.892 311.259 246.908C311.109 246.923 310.965 246.99 310.847 247.1C310.73 247.211 310.643 247.359 310.599 247.526Z" fill="#191919"/>
<path d="M310.913 239.97C312.748 238.334 314.052 236.032 314.615 233.435C315.067 231.381 313.981 230.037 312.951 232.61C312.272 234.729 311.263 236.686 309.973 238.385C308.965 239.693 309.531 240.767 310.913 239.97Z" fill="#191919"/>
<path d="M293.199 220.074C293.569 227.817 291.649 236.45 293.561 243.121C293.835 244.075 295.225 243.906 295.123 242.834C294.579 237.55 294.579 232.21 295.123 226.925C296.135 209.007 291.723 211.067 291.987 212.624C292.668 215.037 293.075 217.541 293.199 220.074Z" fill="#191919"/>
<path d="M308.537 236.35C310.266 233.533 311.249 230.195 311.365 226.743C311.213 224.128 309.517 223.932 309.419 226.337C309.161 229.427 308.315 232.414 306.941 235.082C306.249 236.859 307.179 238.441 308.537 236.35Z" fill="#191919"/>
<path d="M311.457 243.343C310.699 244.456 311.399 245.343 312.497 244.768C314.087 243.544 315.347 241.827 316.131 239.815C316.931 236.925 314.893 236.581 314.591 238.508C314.325 240.208 312.115 242.377 311.457 243.343Z" fill="#191919"/>
<path d="M301.327 228.769C301.913 227.33 305.553 221.839 305.695 222.56C305.497 226.677 304.232 230.63 302.063 233.906C301.543 234.692 302.299 236.166 303.647 234.9C305.819 232.858 307.789 225.503 307.551 222.296C307.533 222.012 307.463 221.735 307.347 221.484C307.23 221.233 307.069 221.013 306.873 220.839C306.678 220.665 306.453 220.54 306.213 220.472C305.974 220.405 305.724 220.397 305.481 220.448C303.403 220.853 300.787 225.408 300.037 228.071C299.799 228.94 300.975 229.631 301.327 228.769Z" fill="#191919"/>
<path d="M246.785 220.074C246.59 219.898 246.366 219.769 246.128 219.696C245.889 219.623 245.639 219.607 245.395 219.649C245.15 219.69 244.916 219.789 244.705 219.939C244.495 220.089 244.313 220.286 244.171 220.52C243.627 221.527 244.007 222.164 244.817 221.695C245.372 221.37 246.001 221.252 246.617 221.356C247.239 221.381 247.283 220.427 246.785 220.074Z" fill="#191919"/>
<path d="M233.951 232.756C233.611 231.867 232.253 232.525 232.389 233.514C232.969 237.709 237.831 239.635 239.871 239.122C240.559 238.949 241.055 238.392 240.537 237.709C239.729 236.644 235.999 238.129 233.951 232.756Z" fill="#191919"/>
<path d="M234.743 215.329C234 215.508 233.316 215.926 232.769 216.535C232.222 217.143 231.836 217.918 231.653 218.769C231.473 220.074 232.321 220.848 233.283 219.148C233.489 218.735 233.765 218.373 234.093 218.083C234.421 217.794 234.796 217.582 235.195 217.461C236.767 216.99 236.249 215.133 234.743 215.329Z" fill="#191919"/>
<path d="M238.127 222.167C237.622 221.933 237.059 221.927 236.55 222.15C236.041 222.372 235.622 222.807 235.377 223.368C234.977 224.271 235.321 225.017 236.225 224.403C236.78 223.983 237.429 223.76 238.093 223.761C238.799 223.754 238.885 222.61 238.127 222.167Z" fill="#191919"/>
<path d="M247.475 213.825C246.949 213.294 246.31 212.935 245.623 212.786C244.937 212.637 244.228 212.703 243.571 212.978C242.507 213.5 242.689 214.925 243.971 214.925C244.892 214.767 245.833 214.875 246.709 215.239C247.735 215.678 248.041 214.414 247.475 213.825Z" fill="#191919"/>
<path d="M240.999 229.614C239.999 230.647 241.293 231.483 243.465 230.307C243.86 230.172 244.204 229.884 244.439 229.491C244.673 229.099 244.785 228.625 244.755 228.15C244.355 226.274 243.656 224.501 242.695 222.92C241.895 221.98 241.495 223.223 241.847 224.227C242.322 225.593 242.701 227.002 242.979 228.439C243.027 228.573 241.241 229.36 240.999 229.614Z" fill="#191919"/>
<path d="M121.631 140.843C121.115 149.39 122.665 172.548 115.611 180.518C109.751 187.136 99.6571 181.382 95.5651 174.95C94.7371 173.645 93.7911 175.262 94.6031 176.544C99.4651 184.2 110.471 189.734 117.161 182.165C123.851 174.595 122.985 152.282 123.125 141.183C123.137 140.243 121.697 139.755 121.631 140.843Z" fill="#191919"/>
<path d="M85.2214 160.083C86.209 162.157 87.7002 163.852 89.5114 164.96C88.885 171.33 88.6957 177.747 88.9454 184.151C89.0614 187.485 90.8214 187.385 90.7454 184.151C90.5717 177.832 90.7869 171.505 91.3894 165.221C91.7894 161.155 90.6954 164.715 87.3374 159.09C84.7094 154.687 86.1374 149.945 88.4694 149.619C91.2994 149.233 92.8514 153.401 94.1294 151.62C96.5298 147.472 98.0778 142.745 98.6554 137.801C105.525 139.649 129.537 143.033 130.935 127.637C132.631 108.947 102.707 108.591 93.8014 121.599C89.0694 115.232 78.1374 122.213 86.4674 147.743C83.3654 149.919 82.7814 155.808 85.2214 160.083Z" fill="#191919"/>
<path d="M120.171 145.798C119.182 144.764 117.904 144.174 116.571 144.137C115.201 144.244 114.849 146.048 116.479 146.447C117.38 146.481 118.254 146.818 118.993 147.415C120.261 148.713 121.329 146.999 120.171 145.798Z" fill="#191919"/>
<path d="M110.599 163.722C109.061 163.604 108.109 165.602 110.905 165.826C112.693 165.969 113.609 165.406 114.051 164.44C114.717 162.987 114.481 157.256 114.051 154.713C114.051 154.489 113.974 154.274 113.837 154.116C113.701 153.958 113.515 153.869 113.321 153.869C113.128 153.869 112.942 153.958 112.805 154.116C112.668 154.274 112.591 154.489 112.591 154.713C112.779 162.308 113.505 163.943 110.599 163.722Z" fill="#191919"/>
<path d="M102.311 165.551C101.723 172.414 109.311 175.315 111.467 173.015C111.567 172.88 111.634 172.717 111.663 172.542C111.691 172.368 111.68 172.187 111.63 172.019C111.579 171.852 111.492 171.702 111.376 171.585C111.26 171.468 111.12 171.389 110.969 171.354C110.171 171.592 109.339 171.63 108.528 171.465C107.717 171.301 106.946 170.938 106.267 170.4C105.587 169.863 105.016 169.163 104.59 168.349C104.164 167.535 103.894 166.625 103.799 165.68C103.799 165.462 103.728 165.251 103.6 165.091C103.472 164.93 103.295 164.832 103.107 164.816C102.918 164.799 102.731 164.866 102.583 165.002C102.436 165.139 102.338 165.335 102.311 165.551Z" fill="#191919"/>
<path d="M117.749 157.42C119.311 157.281 119.187 153.514 117.749 153.615C116.675 153.692 116.221 157.556 117.749 157.42Z" fill="#191919"/>
<path d="M106.941 153.407C105.487 153.719 105.809 157.12 106.941 157.053C108.073 156.986 108.399 153.093 106.941 153.407Z" fill="#191919"/>
<path d="M107.925 144.923C107.029 143.768 103.267 144.572 102.725 147.432C102.589 148.152 103.279 149.589 104.467 147.863C105.655 146.138 107.051 147.013 107.523 146.831C107.682 146.766 107.825 146.657 107.939 146.512C108.052 146.367 108.132 146.192 108.172 146.003C108.212 145.813 108.21 145.615 108.167 145.427C108.124 145.238 108.041 145.065 107.925 144.923Z" fill="#191919"/>
<path d="M93.0428 242.938C93.5175 230.355 94.8401 217.833 96.9988 205.486C97.2748 203.904 95.5388 203.461 95.2548 205.024C93.8028 213.04 90.3888 234.96 91.4968 242.934C91.5272 243.145 91.6214 243.337 91.7625 243.475C91.9037 243.614 92.0828 243.69 92.2681 243.691C92.4533 243.691 92.6327 243.616 92.7745 243.478C92.9163 243.341 93.0114 243.149 93.0428 242.938Z" fill="#191919"/>
<path d="M156.559 333.962C157.139 331.848 157.497 301.58 157.067 298.064C157.017 297.867 156.912 297.694 156.769 297.571C156.627 297.448 156.453 297.381 156.275 297.381C156.097 297.381 155.924 297.448 155.781 297.571C155.638 297.694 155.534 297.867 155.483 298.064C154.951 301.384 155.471 317.189 154.635 333.962C154.577 335.112 156.243 335.108 156.559 333.962Z" fill="#191919"/>
<path d="M59.3487 298.926C59.2307 305.625 62.6187 330.305 63.8747 339.254C64.2427 341.871 64.1707 342.257 66.4227 343.019C91.0787 351.395 126.841 346.11 153.345 343.437C153.493 343.42 153.637 343.369 153.769 343.287C153.9 343.206 154.017 343.095 154.111 342.962C154.205 342.828 154.276 342.674 154.319 342.509C154.362 342.344 154.377 342.171 154.362 341.999C154.347 341.828 154.303 341.661 154.232 341.509C154.161 341.358 154.065 341.223 153.95 341.114C153.834 341.005 153.701 340.923 153.558 340.874C153.415 340.824 153.265 340.807 153.117 340.825C125.269 343.645 93.4827 348.378 66.3547 340.628C64.7007 328.154 62.4147 314.849 61.0007 298.797C60.9787 297.699 59.3687 297.776 59.3487 298.926Z" fill="#191919"/>
<path d="M61.3071 243.971C59.5411 246.131 57.5211 255.112 57.2091 257.762C57.1991 257.974 57.2557 258.183 57.3686 258.351C57.4815 258.519 57.643 258.634 57.8235 258.675C58.0041 258.717 58.1914 258.681 58.3512 258.576C58.5109 258.47 58.6324 258.302 58.6931 258.101C60.5251 249.266 62.4471 246.796 62.5851 244.717C62.6331 243.996 61.7791 243.394 61.3071 243.971Z" fill="#191919"/>
<path d="M176.421 298.286C177.769 298.187 177.849 296.3 176.421 296.182C165.47 295.322 154.589 293.518 143.871 290.783C142.153 280.756 141.771 270.484 142.739 260.324C142.911 258.744 141.191 258.808 141.019 260.324C139.903 270.157 139.593 280.744 142.151 290.273C138.823 289.201 128.965 286.346 126.305 283.895C125.108 274.336 124.706 264.667 125.105 255.02C140.287 254.69 155.415 257.193 169.905 262.433C170.721 262.728 170.787 261.4 170.063 260.89C165.063 257.365 154.921 255.242 148.979 254.352C148.617 251.555 146.805 242.902 145.651 241.465C145.571 241.383 145.478 241.32 145.377 241.279C145.276 241.238 145.169 241.221 145.062 241.229C144.955 241.236 144.851 241.268 144.754 241.322C144.658 241.376 144.572 241.451 144.501 241.543C143.701 242.574 145.619 245.008 146.975 254.066C140.138 253.028 133.249 252.512 126.353 252.523C123.739 252.523 123.139 252.523 122.879 255.295C122.368 264.292 122.672 273.326 123.785 282.25C124.171 285.595 124.665 286.177 127.519 287.845C135.671 292.615 166.237 299.048 176.421 298.286Z" fill="#191919"/>
<path d="M90.8575 273.213C89.6355 290.104 91.7675 322.003 94.1515 339.372C94.3515 340.887 96.4035 340.681 96.2235 339.141C93.7711 317.301 92.5232 295.304 92.4875 273.282C92.4635 273.057 92.3709 272.849 92.2262 272.696C92.0815 272.543 91.8943 272.454 91.6981 272.446C91.5018 272.437 91.3094 272.51 91.1554 272.651C91.0014 272.791 90.8957 272.991 90.8575 273.213Z" fill="#191919"/>
<path d="M44.7706 305.595C51.177 303.227 56.9674 299.042 61.6126 293.423C62.9566 291.806 63.4326 290.98 62.0646 288.914C59.4476 285.384 57.5745 281.201 56.5925 276.694C55.6105 272.187 55.5461 267.479 56.4046 262.938C56.7806 260.559 56.4046 259.203 54.2666 259.866C47.9746 261.82 37.1806 266.394 32.7626 271.07C32.0586 271.813 32.8866 273.188 33.6906 272.638C40.0541 268.025 47.0055 264.595 54.2906 262.474C52.4906 274.629 55.2646 281.506 60.8446 291.01C58.4486 293.982 55.719 296.572 52.7286 298.709C43.3126 289.82 40.8706 278.432 41.4106 273.114C41.5206 272.042 39.5986 270.342 39.6226 273.44C39.6621 278.555 40.7122 283.592 42.6931 288.167C44.6739 292.741 47.5331 296.734 51.0526 299.838C49.2075 301.023 47.2802 302.027 45.2906 302.841C33.3986 307.692 27.2066 304.578 24.7606 290.423C20.8706 267.912 36.8286 233.777 49.2986 217.087C59.3206 203.671 62.7446 203.287 78.3406 197.073C79.7464 201.596 81.9226 205.747 84.7406 209.282C87.4066 212.636 88.5006 208.268 96.2946 201.282C98.95 204.175 101.368 207.345 103.517 210.753C104.439 212.077 105.517 211.966 106.917 211.315C115.111 206.941 122.492 200.77 128.649 193.144C130.177 194.83 149.249 202.218 160.883 215.484C171.645 227.759 186.263 257.863 188.249 275.736C188.421 277.277 190.017 276.858 189.849 275.304C187.849 257.3 174.001 227.11 162.249 213.858C153.399 203.867 141.199 196.715 129.735 191.629C129.848 191.464 129.932 191.276 129.981 191.073C130.03 190.871 130.043 190.659 130.02 190.451C129.997 190.242 129.937 190.041 129.845 189.86C129.753 189.679 129.631 189.52 129.485 189.395C127.536 187.337 125.443 185.47 123.227 183.812C121.193 182.326 121.119 182.264 119.243 184.154C111.475 191.975 107.359 194.701 96.4706 198.127C92.9308 195.398 89.7935 192.03 87.1786 188.152C86.0526 186.487 85.9566 186.256 84.2486 187.277C81.8706 188.7 77.0826 192.754 77.6946 194.793C61.1526 201.437 58.1586 201.345 47.6686 215.604C35.1546 232.617 18.9986 266.494 22.6206 289.958C24.9306 304.92 31.5546 310.464 44.7706 305.595ZM121.439 185.244C123.664 186.87 125.769 188.706 127.731 190.735C121.564 198.853 113.888 205.257 105.277 209.467C103.093 205.971 100.571 202.774 97.7606 199.938C106.726 197.817 114.957 192.712 121.439 185.251V185.244ZM85.6386 189.088C88.0277 193.258 91.1324 196.817 94.7606 199.545C91.8251 201.958 89.1835 204.816 86.9066 208.041C83.6754 204.199 81.1573 199.635 79.5066 194.629C81.1964 192.318 83.2804 190.434 85.6286 189.095L85.6386 189.088Z" fill="#191919"/>
<path d="M108.287 275.043C108.287 274.653 108.163 274.13 107.789 274.01C105.943 273.426 106.657 275.858 100.647 275.671C100.445 275.631 100.238 275.678 100.064 275.805C99.891 275.931 99.7647 276.128 99.7098 276.356C99.655 276.584 99.6755 276.827 99.7674 277.039C99.8594 277.251 100.016 277.415 100.207 277.501C103.121 278.852 108.259 276.953 108.287 275.043Z" fill="#191919"/>
<path d="M104.677 248.676C103.703 248.494 103.635 250.182 104.477 250.559C110.551 253.292 113.001 251.511 118.693 257.004C119.383 257.671 120.709 257.096 120.401 255.849C119.449 251.957 111.105 249.882 104.677 248.676Z" fill="#191919"/>
<path d="M109.283 282.377C110.483 281.372 109.725 279.568 108.253 280.326C106.656 281.284 104.807 281.517 103.069 280.979C102.141 280.783 101.927 282 102.719 282.784C104.215 284.262 107.767 283.647 109.283 282.377Z" fill="#191919"/>
<path d="M98.0452 270.063C97.2452 270.282 97.3892 272.035 98.2452 271.973C107.773 271.28 110.601 259.524 108.623 257.501C108.491 257.365 108.32 257.29 108.142 257.29C107.965 257.29 107.794 257.365 107.661 257.501C105.877 259.321 107.905 267.381 98.0452 270.063Z" fill="#191919"/>
<path d="M106.725 288.057C113.525 290.072 121.089 284.345 120.925 281.169C120.925 280.384 120.077 279.601 119.421 280.162C118.765 280.723 116.535 286.829 106.971 286.228C106.782 286.236 106.6 286.319 106.458 286.465C106.316 286.61 106.222 286.809 106.193 287.025C106.164 287.242 106.201 287.463 106.298 287.652C106.396 287.84 106.546 287.984 106.725 288.057Z" fill="#191919"/>
<path d="M60.5032 261.345C63.3592 257.078 70.1952 248.871 75.4192 252.273C76.6072 253.047 77.4432 250.97 76.2472 250.194C70.1232 246.228 61.5132 253.948 59.2692 259.684C58.3992 261.901 59.9692 262.141 60.5032 261.345Z" fill="#191919"/>
<path d="M79.347 277.175C77.121 276.897 74.9495 276.199 72.919 275.11C72.119 274.95 70.119 277.399 75.431 278.806C81.451 280.407 80.399 277.253 79.347 277.175Z" fill="#191919"/>
<path d="M71.7067 280.808C69.5447 279.593 69.5727 283.01 73.2807 284.103C74.4147 284.437 77.8227 284.387 77.5027 282.795C77.2107 281.358 76.0647 283.255 71.7067 280.808Z" fill="#191919"/>
<path d="M73.9832 288.057C74.9132 287.503 74.4452 285.854 73.4612 286.209C70.0612 287.411 67.6992 287.293 62.9252 285.242C62.7569 285.184 62.5768 285.191 62.4126 285.263C62.2484 285.335 62.1093 285.467 62.0167 285.64C61.9241 285.812 61.8832 286.015 61.9003 286.217C61.9174 286.419 61.9915 286.609 62.1112 286.757C63.8441 288.087 65.8346 288.901 67.9059 289.128C69.9771 289.355 72.0648 288.987 73.9832 288.057Z" fill="#191919"/>
<path d="M82.6627 271.959C76.4387 268.233 74.9907 266.011 73.3147 262.077C72.9647 261.252 71.3147 261.562 71.8887 263.788C73.0427 268.24 78.4647 271.945 81.8487 273.952C81.9641 274.033 82.0927 274.084 82.2264 274.103C82.3601 274.123 82.4957 274.109 82.6246 274.064C82.7535 274.019 82.8728 273.943 82.9747 273.841C83.0766 273.74 83.1588 273.614 83.2161 273.474C83.2734 273.333 83.3045 273.18 83.3073 273.024C83.3101 272.869 83.2846 272.714 83.2324 272.571C83.1802 272.427 83.1026 272.298 83.0044 272.191C82.9063 272.085 82.7899 272.003 82.6627 271.952V271.959Z" fill="#191919"/>
<path d="M303.761 313.123C300.373 318.006 298.463 327.563 303.399 331.425C308.853 335.692 315.667 331.282 318.999 325.724C322.799 319.411 323.323 310.293 318.999 307.096C314.241 303.573 307.629 307.549 303.761 313.123ZM319.107 320.078C316.907 326.613 309.767 333.155 304.813 329.385C300.951 326.447 302.813 318.041 305.457 314.456C307.803 311.268 311.987 307.602 315.915 308.418C320.623 309.395 320.409 316.221 319.107 320.078Z" fill="#191919"/>
<path d="M254.867 355.32C254.753 355.32 220.335 355.941 214.291 356.223C209.691 356.438 208.633 356.838 208.633 361.661C208.491 362.766 208.688 363.894 209.191 364.849C209.693 365.804 210.468 366.526 211.383 366.891C212.163 367.092 212.515 365.948 211.995 365.294C211.577 364.883 211.255 364.358 211.057 363.767C210.86 363.175 210.793 362.537 210.863 361.908C210.999 359.136 210.931 358.84 214.133 358.72C227.115 358.226 239.419 358.748 252.909 358.039C255.783 357.889 256.587 358.184 256.995 354.902C259.557 334.223 262.051 307.607 265.109 284.888C266.545 274.22 274.627 271.786 282.981 271.476C301.167 270.797 326.431 270.282 344.833 269.958C360.543 269.681 358.551 277.043 357.691 288.261C355.691 314.405 353.463 337.295 350.571 359.792C350.383 361.24 349.85 362.6 349.033 363.719C348.914 363.797 348.81 363.902 348.729 364.029C348.648 364.156 348.591 364.301 348.562 364.455C348.533 364.609 348.532 364.769 348.56 364.923C348.588 365.077 348.644 365.223 348.724 365.351C348.804 365.479 348.906 365.586 349.025 365.664C349.143 365.743 349.274 365.792 349.41 365.809C349.546 365.825 349.683 365.808 349.813 365.759C349.942 365.709 350.062 365.629 350.163 365.523C351.634 363.839 352.564 361.626 352.801 359.249C355.245 336.429 357.865 314.269 359.683 291.208C361.125 272.908 361.165 267.3 346.451 267.221C329.147 267.129 297.785 268.88 284.271 268.907C272.851 268.928 264.871 271.987 263.117 285.56C260.127 308.762 257.277 332.615 254.867 355.32Z" fill="#191919"/>
<path d="M155.869 346.145C128.869 350.236 80.3988 354.066 64.5328 345.151C64.2828 349.54 64.3168 360.014 64.2148 365.83C72.4768 365.713 150.515 365.334 155.891 365.087C155.959 362.118 156.199 350.797 155.869 346.145Z" fill="#191919"/>
<path d="M250.747 223.789C250.629 219.681 250.323 215.584 249.831 211.513C249.683 210.702 248.389 210.573 248.471 211.513C249.181 219.598 250.749 240.85 246.775 246.547C244.619 249.637 239.621 250.612 231.087 247.515C229.957 247.103 229.665 248.439 230.703 249.03C233.833 250.787 237.273 251.682 240.753 251.645C241.074 255.377 241.784 259.05 242.869 262.585C243.173 263.567 244.523 263.151 244.269 262.123C243.693 259.813 243.259 257.458 242.969 255.078C255.747 253.77 268.603 242.49 265.469 241.116C262.335 239.741 255.579 234.678 250.747 223.789Z" fill="#191919"/>
<path d="M220.561 258.704V263.16C220.543 263.405 220.61 263.649 220.747 263.837C220.884 264.025 221.08 264.142 221.293 264.163C221.505 264.184 221.715 264.106 221.878 263.948C222.041 263.789 222.143 263.562 222.161 263.317C222.649 256.063 222.55 248.772 221.867 241.539C221.617 238.921 221.991 238.261 220.067 237.88C217.327 237.334 216.325 233.953 215.891 230.677C215.491 227.632 216.401 224.44 218.653 224.297C220.723 224.172 221.371 227.147 222.341 223.682C222.891 220.51 222.841 217.237 222.195 214.089C227.775 214.089 248.525 213.334 260.541 200.374C262.215 198.57 254.271 198.924 250.433 192.289C242.943 179.333 221.289 171.532 213.751 194.029C204.151 189.61 198.881 199.901 201.891 228.501C203.221 241.141 194.387 252.031 194.291 253.338C194.195 254.646 206.121 259.894 220.561 258.704Z" fill="#191919"/>
<path d="M115.799 228.716C113.893 228.194 112.022 227.517 110.199 226.69C112.033 223.828 113.957 221.03 115.633 218.048C115.771 217.845 115.833 217.587 115.806 217.331C115.779 217.074 115.666 216.841 115.49 216.682C115.314 216.522 115.091 216.45 114.869 216.481C114.647 216.512 114.445 216.644 114.307 216.847C111.915 219.918 109.675 223.144 107.599 226.507C107.424 226.789 107.353 227.139 107.402 227.48C107.45 227.822 107.614 228.127 107.857 228.33C109.369 229.165 110.946 229.832 112.567 230.323C109.885 232.559 105.889 235.149 103.355 236.861C101.755 237.942 102.221 239.612 103.943 238.898C108.117 236.584 112.158 233.965 116.043 231.056C117.127 230.427 117.199 229.097 115.799 228.716Z" fill="url(#paint0_linear_1_690)"/>
<path d="M82.143 238.586C80.819 234.398 79.227 230.296 77.615 226.244C77.193 225.181 76.215 224.544 75.545 226.168C75.0169 227.491 74.3722 228.748 73.621 229.919C71.915 226.578 70.4571 223.076 69.263 219.45C69.2236 219.331 69.1643 219.222 69.0883 219.129C69.0124 219.036 68.9213 218.961 68.8204 218.909C68.7195 218.857 68.6106 218.828 68.5 218.824C68.3895 218.821 68.2794 218.842 68.176 218.888C68.0727 218.933 67.9781 219.002 67.8977 219.09C67.8173 219.177 67.7526 219.282 67.7074 219.399C67.6622 219.516 67.6373 219.641 67.6341 219.769C67.631 219.897 67.6496 220.024 67.689 220.143C68.9809 224.584 70.578 228.898 72.465 233.045C72.5353 233.258 72.6524 233.446 72.8049 233.59C72.9573 233.735 73.1398 233.831 73.3343 233.869C73.5288 233.908 73.7286 233.887 73.9139 233.808C74.0993 233.73 74.2637 233.598 74.391 233.423C75.1897 232.195 75.883 230.88 76.461 229.496C77.9359 232.699 79.2657 235.989 80.445 239.351C80.4739 239.501 80.5305 239.642 80.6109 239.764C80.6914 239.886 80.7937 239.987 80.911 240.059C81.0283 240.132 81.1578 240.174 81.2905 240.183C81.4232 240.192 81.5561 240.168 81.6799 240.112C81.8038 240.056 81.9158 239.97 82.0082 239.86C82.1005 239.749 82.1711 239.617 82.2151 239.472C82.2591 239.327 82.2754 239.173 82.263 239.02C82.2505 238.867 82.2096 238.719 82.143 238.586Z" fill="url(#paint1_linear_1_690)"/>
<path d="M47.9988 305.634C38.1228 321.22 38.9448 342.363 20.8348 358.602C18.8088 360.418 18.5788 364.128 22.6908 360.406C38.7908 345.833 40.5128 326.2 49.5708 306.815C50.1228 305.625 48.5988 304.689 47.9988 305.634Z" fill="url(#paint2_linear_1_690)"/>
<path d="M166.495 343.816C136.555 328.937 134.661 298.891 120.095 286.835C119.223 286.115 118.345 287.625 118.963 288.482C135.699 311.751 137.603 333.179 165.763 346.574C167.273 347.29 167.935 344.532 166.495 343.816Z" fill="url(#paint3_linear_1_690)"/>
<path d="M341.823 214.368C340.903 229.591 340.941 248.159 330.211 260.816C329.091 262.135 330.743 264.304 331.851 262.971C342.977 249.598 344.131 232.774 343.951 214.525C343.96 214.364 343.942 214.202 343.896 214.049C343.851 213.896 343.78 213.755 343.688 213.633C343.595 213.512 343.483 213.413 343.357 213.342C343.232 213.27 343.095 213.228 342.955 213.218C342.816 213.208 342.675 213.229 342.543 213.281C342.41 213.334 342.288 213.416 342.183 213.522C342.078 213.629 341.992 213.759 341.93 213.904C341.869 214.049 341.832 214.207 341.823 214.368Z" fill="url(#paint4_linear_1_690)"/>
<path d="M339.537 104.516C339.257 100.726 339.249 93.3312 338.619 90.1942C338.419 89.2148 337.067 88.9653 336.831 90.0649C336.418 95.0597 336.525 100.094 337.149 105.059C337.339 106.778 339.679 106.464 339.537 104.516Z" fill="url(#paint5_linear_1_690)"/>
<path d="M289.599 153.669C291.275 153.812 298.291 152.241 300.849 151.954C302.151 151.811 301.983 149.229 300.623 149.342C298.599 149.506 291.071 150.386 289.203 151.682C289.048 151.808 288.928 151.984 288.86 152.188C288.792 152.393 288.779 152.616 288.821 152.829C288.864 153.043 288.96 153.237 289.099 153.386C289.238 153.536 289.412 153.634 289.599 153.669Z" fill="url(#paint6_linear_1_690)"/>
<path d="M302.369 113.013C304.969 115.621 306.313 116.81 308.027 118.621C309.251 119.913 311.045 118.547 309.997 117.067C307.847 114.419 305.465 112.036 302.889 109.954C300.799 107.799 299.613 110.259 302.369 113.013Z" fill="url(#paint7_linear_1_690)"/>
<path d="M370.399 100.594C368.317 102.308 364.999 108.769 363.779 111.236C363.687 111.396 363.624 111.576 363.594 111.766C363.565 111.955 363.569 112.149 363.608 112.336C363.646 112.524 363.717 112.7 363.817 112.854C363.917 113.008 364.043 113.136 364.188 113.231C364.332 113.327 364.492 113.387 364.658 113.407C364.824 113.428 364.991 113.409 365.15 113.352C365.309 113.295 365.456 113.201 365.582 113.075C365.708 112.949 365.811 112.795 365.883 112.622C367.757 108.963 369.823 105.426 371.745 101.8C372.109 101.109 371.023 100.072 370.399 100.594Z" fill="url(#paint8_linear_1_690)"/>
<path d="M313.483 148.242C314.283 160.871 322.181 171.668 330.719 178.91C331.849 179.868 332.719 178.256 331.749 177.212C325.297 170.194 318.583 162.83 316.527 152.375C309.275 115.5 365.831 110.268 366.157 144.144C366.275 156.524 359.357 166.738 353.017 175.976C352.031 177.413 353.461 178.607 354.511 177.283C361.059 169.018 367.655 158.984 368.511 147.217C371.413 107.942 311.045 110.072 313.483 148.242Z" fill="url(#paint9_linear_1_690)"/>
<path d="M388.781 137.117C384.843 137.646 380.859 138.252 376.981 139.067C375.851 139.298 376.313 141.329 377.343 141.236C381.304 140.883 385.258 140.369 389.205 139.693C390.545 139.464 390.037 136.951 388.781 137.117Z" fill="url(#paint10_linear_1_690)"/>
<path d="M350.435 151.485C359.687 142.091 348.769 133.026 344.845 143.876C343.881 146.548 343.124 149.313 342.581 152.139C340.441 152.578 338.262 152.705 336.095 152.518C335.259 148.924 334.115 143.047 330.895 141.43C324.309 138.122 320.857 152.594 334.143 155.103C335.64 162.379 336.807 169.74 337.641 177.156C337.667 177.387 337.764 177.598 337.915 177.751C338.066 177.904 338.261 177.989 338.462 177.989C338.663 177.989 338.857 177.904 339.008 177.751C339.159 177.598 339.257 177.387 339.283 177.156C339.174 169.828 338.319 162.54 336.735 155.442C338.523 155.525 340.315 155.429 342.089 155.154C341.236 162.353 341.581 169.675 343.107 176.724C343.445 178.515 345.157 178.03 344.873 176.304C343.689 169.133 343.662 161.772 344.793 154.59C346.879 154.153 348.826 153.081 350.435 151.485ZM350.503 142.151C353.659 144.548 348.727 150.467 345.387 151.391C347.233 142.83 349.337 141.264 350.503 142.151ZM327.867 147.877C326.565 144.948 328.817 142.347 330.889 144.819C332.18 146.981 333.045 149.443 333.425 152.033C332.3 151.811 331.225 151.328 330.266 150.613C329.307 149.898 328.484 148.967 327.845 147.875L327.867 147.877Z" fill="url(#paint11_linear_1_690)"/>
<path d="M386.279 174.033C382.892 171.78 379.321 169.916 375.619 168.466C374.667 168.166 374.069 169.852 374.859 170.478C378.047 172.966 381.871 174.23 385.193 176.484C387.295 177.923 388.871 176.073 386.279 174.033Z" fill="url(#paint12_linear_1_690)"/>
<path d="M312.725 178.688C311.253 179.009 306.259 185.877 305.525 187.466C304.047 190.7 306.139 191.037 306.601 190.081C308.697 185.736 312.415 182.77 313.505 180.929C314.017 180.072 313.901 178.432 312.725 178.688Z" fill="url(#paint13_linear_1_690)"/>
<path d="M331.331 181.55C330.765 199.145 334.035 209.945 342.343 209.963C352.925 209.982 354.069 195.311 353.355 180.656C346.052 181.726 338.68 182.026 331.331 181.55ZM348.251 197.577C345.379 199.798 342.086 201.184 338.651 201.617C337.383 201.643 337.139 200.019 338.345 199.67C341.454 198.811 344.403 197.309 347.049 195.237C347.314 195.106 347.611 195.09 347.885 195.194C348.159 195.297 348.391 195.512 348.538 195.798C348.685 196.084 348.737 196.423 348.684 196.75C348.631 197.077 348.477 197.371 348.251 197.577ZM348.591 188.859C346.117 191.137 337.737 193.565 336.525 193.479C335.631 193.479 335.085 192.363 335.971 191.689C337.541 190.492 342.571 189.487 347.289 186.607C348.883 185.637 350.115 187.455 348.599 188.859H348.591Z" fill="url(#paint14_linear_1_690)"/>
<path d="M87.7989 246.664C79.3989 247.126 76.0949 251.227 76.5829 258.676C77.0709 266.126 80.8149 267.829 87.8209 268.025C86.2316 264.766 85.3948 261.089 85.391 257.348C85.3871 253.607 86.2163 249.928 87.7989 246.664Z" fill="url(#paint15_linear_1_690)"/>
<path d="M102.663 257.84C102.787 249.436 95.863 247.018 90.587 246.664C88.8304 249.852 87.8975 253.552 87.8975 257.331C87.8975 261.109 88.8304 264.81 90.587 267.997C96.245 267.722 100.975 266.325 102.255 260.926C103.523 261.552 104.095 263.005 105.073 262.01C106.573 260.474 103.703 258.469 102.663 257.84Z" fill="url(#paint16_linear_1_690)"/>
<path d="M238.557 284.717C235.773 280.129 225.043 271.344 216.137 264.117C208.633 266.729 194.701 274.313 187.185 283.162C179.669 292.012 167.305 333.306 170.479 353.751C172.679 367.921 182.149 366.066 206.697 365.805C206.153 363.83 205.623 356.771 208.723 354.666C211.823 352.562 242.179 352.818 252.863 352.929C253.305 350.143 254.165 342.472 255.127 333.202C236.543 331.894 212.979 335.336 194.527 337.059C193.395 337.163 193.317 335.948 194.379 335.752C196.889 335.141 199.419 334.647 201.963 334.274C202.269 329.046 203.849 311.867 205.539 306.821C205.895 305.766 206.887 306.154 206.727 307.189C205.414 316.064 204.552 325.021 204.147 334.012C221.154 331.696 238.272 330.648 255.395 330.875C261.105 277.99 260.299 273.077 270.731 268.69C267.731 266.939 253.357 261.894 246.387 261.894C245.847 264.9 241.771 279.762 238.557 284.717Z" fill="url(#paint17_linear_1_690)"/>
<path d="M287.949 266.343C294.015 266.096 305.095 265.768 309.011 265.521C309.283 263.703 309.747 260.901 310.653 256.644C308.389 254.796 296.233 247.598 292.653 245.787C292.375 247.186 289.093 261.148 287.949 266.343Z" fill="url(#paint18_linear_1_690)"/>
<defs>
<linearGradient id="paint0_linear_1_690" x1="109.613" y1="216.474" x2="109.613" y2="239.07" gradientUnits="userSpaceOnUse">
<stop stop-color="#3344DC"/>
<stop offset="1" stop-color="#D95DB0"/>
</linearGradient>
<linearGradient id="paint1_linear_1_690" x1="74.9504" y1="218.824" x2="74.9504" y2="240.185" gradientUnits="userSpaceOnUse">
<stop stop-color="#3344DC"/>
<stop offset="1" stop-color="#D95DB0"/>
</linearGradient>
<linearGradient id="paint2_linear_1_690" x1="34.5546" y1="305.247" x2="34.5546" y2="362.003" gradientUnits="userSpaceOnUse">
<stop stop-color="#3344DC"/>
<stop offset="1" stop-color="#D95DB0"/>
</linearGradient>
<linearGradient id="paint3_linear_1_690" x1="143.026" y1="286.646" x2="143.026" y2="346.692" gradientUnits="userSpaceOnUse">
<stop stop-color="#3344DC"/>
<stop offset="1" stop-color="#D95DB0"/>
</linearGradient>
<linearGradient id="paint4_linear_1_690" x1="336.903" y1="213.215" x2="336.903" y2="263.388" gradientUnits="userSpaceOnUse">
<stop stop-color="#3344DC"/>
<stop offset="1" stop-color="#D95DB0"/>
</linearGradient>
<linearGradient id="paint5_linear_1_690" x1="338.064" y1="89.3435" x2="338.064" y2="106.181" gradientUnits="userSpaceOnUse">
<stop stop-color="#3344DC"/>
<stop offset="1" stop-color="#D95DB0"/>
</linearGradient>
<linearGradient id="paint6_linear_1_690" x1="295.268" y1="149.338" x2="295.268" y2="153.678" gradientUnits="userSpaceOnUse">
<stop stop-color="#3344DC"/>
<stop offset="1" stop-color="#D95DB0"/>
</linearGradient>
<linearGradient id="paint7_linear_1_690" x1="305.536" y1="109.133" x2="305.536" y2="119.137" gradientUnits="userSpaceOnUse">
<stop stop-color="#3344DC"/>
<stop offset="1" stop-color="#D95DB0"/>
</linearGradient>
<linearGradient id="paint8_linear_1_690" x1="367.696" y1="100.452" x2="367.696" y2="113.416" gradientUnits="userSpaceOnUse">
<stop stop-color="#3344DC"/>
<stop offset="1" stop-color="#D95DB0"/>
</linearGradient>
<linearGradient id="paint9_linear_1_690" x1="341.012" y1="118.675" x2="341.012" y2="179.203" gradientUnits="userSpaceOnUse">
<stop stop-color="#3344DC"/>
<stop offset="1" stop-color="#D95DB0"/>
</linearGradient>
<linearGradient id="paint10_linear_1_690" x1="383.16" y1="137.109" x2="383.16" y2="141.239" gradientUnits="userSpaceOnUse">
<stop stop-color="#3344DC"/>
<stop offset="1" stop-color="#D95DB0"/>
</linearGradient>
<linearGradient id="paint11_linear_1_690" x1="339.563" y1="138.936" x2="339.563" y2="177.989" gradientUnits="userSpaceOnUse">
<stop stop-color="#3344DC"/>
<stop offset="1" stop-color="#D95DB0"/>
</linearGradient>
<linearGradient id="paint12_linear_1_690" x1="381.061" y1="168.431" x2="381.061" y2="176.995" gradientUnits="userSpaceOnUse">
<stop stop-color="#3344DC"/>
<stop offset="1" stop-color="#D95DB0"/>
</linearGradient>
<linearGradient id="paint13_linear_1_690" x1="309.399" y1="178.661" x2="309.399" y2="190.55" gradientUnits="userSpaceOnUse">
<stop stop-color="#3344DC"/>
<stop offset="1" stop-color="#D95DB0"/>
</linearGradient>
<linearGradient id="paint14_linear_1_690" x1="342.397" y1="180.656" x2="342.397" y2="209.963" gradientUnits="userSpaceOnUse">
<stop stop-color="#3344DC"/>
<stop offset="1" stop-color="#D95DB0"/>
</linearGradient>
<linearGradient id="paint15_linear_1_690" x1="82.1785" y1="246.664" x2="82.1785" y2="268.025" gradientUnits="userSpaceOnUse">
<stop stop-color="#3344DC"/>
<stop offset="1" stop-color="#D95DB0"/>
</linearGradient>
<linearGradient id="paint16_linear_1_690" x1="96.6978" y1="246.664" x2="96.6978" y2="267.997" gradientUnits="userSpaceOnUse">
<stop stop-color="#3344DC"/>
<stop offset="1" stop-color="#D95DB0"/>
</linearGradient>
<linearGradient id="paint17_linear_1_690" x1="220.35" y1="261.894" x2="220.35" y2="366.025" gradientUnits="userSpaceOnUse">
<stop stop-color="#3344DC"/>
<stop offset="1" stop-color="#D95DB0"/>
</linearGradient>
<linearGradient id="paint18_linear_1_690" x1="299.301" y1="245.787" x2="299.301" y2="266.343" gradientUnits="userSpaceOnUse">
<stop stop-color="#3344DC"/>
<stop offset="1" stop-color="#D95DB0"/>
</linearGradient>
</defs>
</svg>
