<svg width="400" height="462" viewBox="0 0 400 462" fill="none" xmlns="http://www.w3.org/2000/svg">
<path d="M212.015 288.475C244.741 286.558 274.723 285.689 279.557 288.819C282.047 290.436 285.921 311.688 287.701 325.902C297.753 324.516 310.385 323.241 323.005 322.247C321.131 311.312 319.975 304.46 315.723 293.894C315.079 292.294 316.843 291.647 317.561 293.109C321.821 302.117 324.682 311.918 326.015 322.067C343.101 320.771 359.959 319.988 370.525 319.988C369.325 308.045 362.679 280.524 350.765 266.412C341.581 255.534 323.765 245.853 307.997 243.562C307.751 246.086 306.908 248.483 305.56 250.49C304.213 252.497 302.412 254.036 300.357 254.939C291.933 258.762 276.557 259.766 262.841 251.065C248.371 255.832 221.853 274.021 212.015 288.475Z" fill="url(#paint0_linear_1_647)"/>
<path d="M388.411 373.478C302.125 375.352 216.229 374.982 129.989 375.095C128.245 375.095 127.851 378.244 129.655 378.281C215.701 380.117 302.773 377.955 388.805 376.738C390.643 376.719 390.239 373.439 388.411 373.478Z" fill="url(#paint1_linear_1_647)"/>
<path d="M175.957 176.567C184.815 176.759 227.985 175.83 232.575 175.602C233.959 175.532 233.923 172.774 232.575 172.774C226.413 172.774 185.873 173.677 175.957 174.278C175.717 174.315 175.497 174.452 175.338 174.663C175.179 174.873 175.091 175.143 175.091 175.423C175.091 175.702 175.179 175.972 175.338 176.183C175.497 176.393 175.717 176.53 175.957 176.567Z" fill="url(#paint2_linear_1_647)"/>
<path d="M140.599 163.795C139.955 164.183 128.817 179.646 133.949 177.808C134.677 177.547 141.949 166.904 142.307 164.996C142.35 164.749 142.326 164.492 142.238 164.261C142.151 164.03 142.003 163.836 141.817 163.705C141.63 163.574 141.413 163.512 141.196 163.528C140.978 163.544 140.769 163.638 140.599 163.795Z" fill="url(#paint3_linear_1_647)"/>
<path d="M116.329 128.667C119.911 128.861 192.849 128.651 197.197 128.156C197.815 128.062 198.38 127.706 198.783 127.158C199.186 126.609 199.399 125.908 199.38 125.189C199.361 124.47 199.111 123.784 198.679 123.266C198.248 122.747 197.665 122.432 197.043 122.381C176.745 122.673 134.549 122.793 116.443 123.25C113.727 123.322 113.499 128.519 116.329 128.667Z" fill="url(#paint4_linear_1_647)"/>
<path d="M218.427 217.565C213.733 217.565 178.043 217.103 175.515 217.937C174.655 218.223 174.315 219.831 175.347 220.171C178.043 221.065 213.547 220.612 218.449 220.612C223.351 220.612 228.109 220.815 232.909 220.612C234.377 220.55 234.269 217.708 232.813 217.634C228.037 217.389 223.213 217.565 218.427 217.565Z" fill="url(#paint5_linear_1_647)"/>
<path d="M174.953 239.147C174.65 239.251 174.395 239.489 174.243 239.809C174.091 240.129 174.054 240.506 174.141 240.857C174.553 242.474 172.703 241.919 233.529 243.09C233.865 243.051 234.176 242.869 234.402 242.58C234.628 242.291 234.753 241.915 234.753 241.525C234.753 241.136 234.628 240.76 234.402 240.471C234.176 240.182 233.865 240 233.529 239.96C175.177 238.872 178.799 238.803 174.953 239.147Z" fill="url(#paint6_linear_1_647)"/>
<path d="M232.229 199.099C232.554 199.074 232.86 198.91 233.086 198.639C233.313 198.367 233.444 198.009 233.454 197.632C233.464 197.256 233.353 196.888 233.142 196.601C232.93 196.314 232.634 196.129 232.311 196.08C223.631 195.803 183.239 195.414 175.911 197.101C174.711 197.376 174.979 199.395 176.125 199.512C182.323 200.157 191.799 197.752 232.229 199.099Z" fill="url(#paint7_linear_1_647)"/>
<path d="M285.576 158.059C285.684 138.161 286.484 113.338 285.038 94.0307C284.998 93.7408 284.866 93.4782 284.669 93.2935C284.471 93.1088 284.222 93.0152 283.968 93.0307C283.714 93.0462 283.474 93.1697 283.295 93.3775C283.115 93.5852 283.009 93.8623 282.996 94.1555C282.526 103.419 282.968 146.458 282.996 158.281C283 160.224 285.566 160.004 285.576 158.059Z" fill="url(#paint8_linear_1_647)"/>
<path d="M134.645 250.247C137.123 253.383 139.758 256.348 142.537 259.129C143.737 260.434 145.585 258.353 144.377 257.05C141.787 254.041 139.065 251.188 136.221 248.503C135.355 247.863 133.977 249.173 134.645 250.247Z" fill="url(#paint9_linear_1_647)"/>
<path d="M23.7988 94.0308C23.7988 92.2937 21.4308 91.9772 21.4108 93.7559C20.6228 167.343 21.6748 252.936 24.7188 326.142C24.8028 328.17 27.5188 327.673 27.4288 325.659C24.2128 248.221 23.7068 171.534 23.7988 94.0308Z" fill="url(#paint10_linear_1_647)"/>
<path d="M53.8848 258.233C53.2128 259.388 54.7708 260.857 55.5568 259.778C56.5708 258.392 62.4508 250.522 62.1568 248.829C61.3468 244.343 55.0328 256.271 53.8848 258.233Z" fill="url(#paint11_linear_1_647)"/>
<path d="M97.8835 220.903C96.8575 220.683 90.3495 227.355 89.0355 228.803C76.7495 219.524 77.9715 221.808 78.1235 227.417C78.1698 231.254 78.4008 235.084 78.8155 238.891C78.9655 240.094 80.5495 239.884 80.6155 238.713C80.8655 234.423 80.3875 230.148 80.3275 225.86C91.1455 233.483 87.8015 233.252 97.9035 223.693C99.1035 225.225 104.817 231.647 106.547 231.404C107.947 231.203 112.661 223.887 113.783 222.328C113.783 225.638 113.875 235.086 114.725 237.761C115.165 239.147 116.325 238.658 116.385 237.278C116.533 234.34 116.225 227.376 116.231 223.984C116.231 220.122 116.221 219.133 114.821 216.823C111.781 211.806 104.081 199.515 99.3835 192.843C95.2455 186.964 95.0635 186.837 92.1595 192.03C87.6855 200.044 80.1755 215.592 79.0275 218.549C78.5415 219.794 80.2035 220.381 80.7815 219.459C82.7055 216.389 87.0615 207.364 89.0675 203.393C93.5775 203.601 98.0941 203.513 102.595 203.13C106.295 208.213 109.831 213.453 113.195 218.838L106.307 228.491C105.369 227.632 98.9215 221.125 97.8835 220.903Z" fill="url(#paint12_linear_1_647)"/>
<path d="M132.341 324.324C121.595 323.631 34.0891 324.174 30.6751 324.786C30.4226 324.88 30.2043 325.068 30.0542 325.321C29.9041 325.574 29.8308 325.877 29.8456 326.183C29.8605 326.489 29.9627 326.78 30.1363 327.012C30.3099 327.244 30.5451 327.402 30.8051 327.463C63.8911 327.572 99.0051 327.269 132.149 327.311C133.761 327.311 134.037 324.44 132.341 324.324Z" fill="url(#paint13_linear_1_647)"/>
<path d="M58.1014 181.296C59.2854 182.823 61.1014 180.91 60.1174 179.614C57.7294 176.484 52.6134 169.376 50.2554 166.983C49.3214 166.033 48.0554 167.519 48.7154 168.651C50.4114 171.573 55.7634 178.283 58.1014 181.296Z" fill="url(#paint14_linear_1_647)"/>
<path d="M96.5994 167.706C96.7494 161.71 96.4422 155.711 95.6814 149.778C95.576 149.565 95.4193 149.391 95.2303 149.278C95.0413 149.166 94.8281 149.119 94.6164 149.143C94.4048 149.168 94.2038 149.263 94.0379 149.416C93.8719 149.57 93.7481 149.776 93.6814 150.009C93.5195 155.998 93.7709 161.992 94.4334 167.935C94.4936 168.233 94.6452 168.495 94.8601 168.675C95.075 168.854 95.3387 168.937 95.6025 168.909C95.8664 168.881 96.1127 168.744 96.2959 168.523C96.4791 168.302 96.5869 168.012 96.5994 167.706Z" fill="url(#paint15_linear_1_647)"/>
<path d="M98.3491 257.142C98.3491 259.06 97.9071 271.788 98.5031 273.458C98.6084 273.668 98.7599 273.843 98.9423 273.965C99.1247 274.086 99.3315 274.15 99.5421 274.15C99.7527 274.15 99.9595 274.086 100.142 273.965C100.324 273.843 100.476 273.668 100.581 273.458C101.203 271.624 100.497 259.667 100.415 257.142C100.307 255.791 98.3491 255.763 98.3491 257.142Z" fill="url(#paint16_linear_1_647)"/>
<path d="M48.309 215.387C72.599 162.624 127.967 168.168 148.329 211.111C124.273 253.516 77.145 259.935 48.199 219.164C47.295 217.893 46.177 219.517 46.999 220.848C72.447 261.735 126.821 256.398 149.273 215.073C150.004 214.022 150.431 212.733 150.494 211.387C150.556 210.041 150.25 208.706 149.619 207.572C124.929 158.734 63.093 167.519 46.637 214.137C46.147 215.523 47.723 216.662 48.309 215.387Z" fill="url(#paint17_linear_1_647)"/>
<path d="M269.707 161.797C263.451 163.183 257.933 178.967 264.835 186.357C269.061 190.882 288.523 191.074 300.321 190.494C300.406 192.162 300.715 193.804 301.239 195.361C301.709 196.747 303.117 197.186 302.767 194.687C302.576 193.263 302.488 191.824 302.505 190.383C304.339 190.291 306.17 190.137 307.997 189.921C307.679 192.999 307.221 196.056 306.625 199.078C306.295 200.734 307.905 201.044 308.451 199.464C310.125 194.466 310.803 189.097 310.433 183.756C309.721 171.982 281.135 159.261 269.707 161.797ZM271.677 168.015C268.799 168.775 268.119 173.825 267.857 176.525C267.407 181.145 264.857 177.911 265.469 173.848C265.937 170.785 268.203 165.796 271.509 166.292C271.7 166.28 271.889 166.353 272.035 166.497C272.182 166.64 272.275 166.842 272.296 167.062C272.318 167.282 272.266 167.504 272.151 167.681C272.035 167.858 271.866 167.978 271.677 168.015Z" fill="#191919"/>
<path d="M293.097 209.332C294.691 206.214 295.787 202.79 296.333 199.224C299.02 199.786 301.582 200.964 303.867 202.689C305.227 203.365 305.743 201.303 305.067 200.663C302.612 198.352 299.612 196.949 296.457 196.636C295.001 193.451 283.933 192.709 282.225 196.07C281.807 195.799 281.344 195.634 280.867 195.584C280.39 195.534 279.908 195.602 279.455 195.782C278.585 193.023 268.769 192.333 266.323 195.518C263.505 195.16 262.335 198.166 266.059 198.138C266.197 201.123 266.675 204.075 267.481 206.916C268.445 209.193 275.377 209.159 276.757 208.006C278.399 206.636 279.145 200.656 279.611 198.353C280.288 198.107 281.018 198.157 281.665 198.491C281.651 201.579 281.955 204.658 282.571 207.662C283.631 210.097 291.559 211.43 293.097 209.332ZM275.999 205.359C275.673 206.267 275.379 206.484 272.751 206.364C268.311 206.163 269.241 207.274 267.881 196.946C271.009 195.719 274.4 195.719 277.527 196.946C277.484 199.837 276.966 202.692 275.999 205.359ZM284.357 206.405C283.862 203.566 283.685 200.664 283.831 197.773C287.261 196.359 291.027 196.491 294.375 198.145C294.188 200.416 293.683 202.638 292.881 204.724C291.745 207.595 291.557 207.972 287.975 207.634C286.255 207.473 284.599 207.031 284.357 206.408V206.405Z" fill="#191919"/>
<path d="M286.053 204.56C286.427 206.117 289.053 206.299 288.441 201.802C288.091 199.242 284.967 200.046 286.053 204.56Z" fill="#191919"/>
<path d="M308.737 202.698C301.885 203.361 298.503 217.858 294.863 219.247C292.319 220.219 286.613 215.992 280.847 215.537C275.081 215.082 271.797 217.895 270.721 217.302C269.645 216.708 270.387 211.51 270.387 210.298C270.387 209.085 269.815 208.422 268.799 211.097C267.783 213.772 257.875 239.45 262.185 246.359C268.345 256.232 293.483 258.323 301.287 251.531C311.071 243.017 302.745 215.671 305.155 208.547C305.608 207.528 306.331 206.704 307.218 206.193C308.105 205.682 309.11 205.511 310.087 205.705C313.383 207.355 312.477 218.641 307.209 216.874C305.885 216.433 305.585 218.355 306.809 219.096C310.387 221.27 313.899 217.881 314.367 212.201C314.717 207.9 313.453 202.243 308.737 202.698ZM281.455 228.339C276.489 228.339 275.485 226.063 275.067 222.333C279.366 223.4 283.819 223.311 288.083 222.072C287.629 225.481 286.999 228.348 281.455 228.348V228.339Z" fill="#191919"/>
<path d="M279.079 204.105C278.159 206.553 277.471 209.109 277.025 211.728C276.531 214.835 280.109 214.844 282.125 214.486C283.325 214.273 283.545 212.693 282.231 212.582C281.265 212.499 279.367 212.444 279.187 212.058C279.352 209.481 279.781 206.935 280.465 204.474C280.743 203.458 279.459 203.061 279.079 204.105Z" fill="#191919"/>
<path d="M273.399 204.666C274.511 204.176 274.599 200.718 273.649 200.074C271.251 198.429 270.917 205.747 273.399 204.666Z" fill="#191919"/>
<path d="M292.965 82.9983C200.469 83.0815 102.277 82.8343 11.1891 83.7306C9.63706 83.7444 9.60106 88.3506 11.0931 88.3621C103.303 89.0297 200.421 88.1981 292.869 88.1149C294.529 88.1126 294.565 82.9983 292.965 82.9983Z" fill="#A168CA"/>
<path d="M187.585 328.907C171.785 327.821 147.311 324.25 132.567 316.939C130.671 315.996 121.305 317.764 110.671 312.088C109.559 311.497 109.117 313.305 110.157 314.047C115.591 317.914 122.455 318.944 128.723 319.177C130.408 319.127 132.077 319.558 133.583 320.432C150.955 327.628 169.25 331.403 187.705 331.6C189.221 331.626 189.173 329.018 187.585 328.907Z" fill="#191919"/>
<path d="M367.219 323.668C366.911 321.723 364.641 322.409 364.925 324.343C365.903 331.283 365.515 338.389 363.791 345.133C359.709 361.564 347.697 358.928 335.673 358.288C323.053 357.618 305.673 356.221 294.769 355.641C294.529 355.604 294.285 355.677 294.09 355.845C293.895 356.012 293.765 356.261 293.727 356.538C293.688 356.815 293.745 357.098 293.885 357.328C294.025 357.557 294.237 357.714 294.475 357.766C304.965 359.69 327.373 360.829 336.103 361.307C348.043 361.963 361.363 363.802 365.809 347.835C367.997 340.037 368.481 331.735 367.219 323.668Z" fill="#191919"/>
<path d="M288.953 331.901C304.404 329.063 319.97 327.125 335.591 326.096C335.843 326.069 336.077 325.931 336.243 325.71C336.41 325.49 336.496 325.203 336.483 324.911C336.471 324.618 336.361 324.343 336.177 324.142C335.993 323.94 335.748 323.829 335.495 323.832C319.767 324.577 304.094 326.419 288.559 329.348C288.266 329.409 288.006 329.603 287.836 329.885C287.666 330.168 287.601 330.517 287.654 330.855C287.707 331.194 287.874 331.494 288.119 331.69C288.363 331.886 288.666 331.962 288.959 331.901H288.953Z" fill="#191919"/>
<path d="M124.449 311.919C124.615 311.918 124.78 311.878 124.932 311.801C125.085 311.725 125.223 311.614 125.337 311.474C125.452 311.335 125.541 311.171 125.599 310.991C125.658 310.811 125.684 310.619 125.677 310.427C125.669 310.235 125.629 310.047 125.557 309.873C125.485 309.7 125.384 309.545 125.259 309.418C125.135 309.291 124.989 309.194 124.831 309.133C124.673 309.072 124.507 309.049 124.341 309.064C116.917 309.339 113.171 306.904 108.271 302.885C107.495 302.25 106.671 303.37 107.271 304.271C110.759 309.595 118.897 312.169 124.449 311.919Z" fill="#191919"/>
<path d="M136.799 297.297C137.703 299.108 139.599 299.353 141.287 299.794C151.257 302.411 174.071 301.538 184.653 301.395C186.157 301.374 185.853 299.129 184.307 299.145C176.581 299.235 153.263 299.489 141.693 297.022C139.557 296.56 139.667 296.925 138.577 294.943C136.517 291.187 133.445 286.592 129.719 286.516C128.607 286.493 128.519 287.731 129.467 288.281C132.759 290.188 135.357 293.383 136.799 297.297Z" fill="#191919"/>
<path d="M130.199 297.81C125.035 296.059 117.737 293.25 113.723 287.26C112.523 285.463 111.503 286.86 112.099 288.309C114.599 294.389 123.751 299.859 129.005 300.09C131.911 300.231 131.103 298.115 130.199 297.81Z" fill="#191919"/>
<path d="M109.285 293.095C109.12 292.863 108.885 292.713 108.627 292.676C108.369 292.639 108.109 292.717 107.899 292.894C107.69 293.071 107.547 293.335 107.501 293.63C107.454 293.925 107.507 294.23 107.649 294.481C109.556 297.64 112.031 300.285 114.907 302.235C117.782 304.184 120.988 305.392 124.305 305.775C124.567 305.785 124.824 305.697 125.038 305.523C125.251 305.349 125.41 305.1 125.49 304.812C125.57 304.524 125.566 304.215 125.479 303.93C125.392 303.645 125.227 303.4 125.009 303.234C123.255 302.361 115.799 301.799 109.285 293.095Z" fill="#191919"/>
<path d="M339.531 363.77C335.949 363.231 294.399 364.294 292.475 363.384C290.551 362.474 280.599 297.011 277.999 292.709C275.399 288.408 193.501 291.136 189.777 293.62C186.053 296.103 198.351 370.877 201.537 372.39C204.379 373.737 335.261 371.866 339.537 371.605C343.813 371.344 343.113 364.308 339.531 363.77ZM236.347 342.257C225.173 343.331 221.671 322.16 232.837 320.055C238.137 319.055 242.807 324.483 243.797 331.169C244.003 332.471 243.969 333.81 243.697 335.096C243.424 336.383 242.92 337.589 242.217 338.635C241.514 339.681 240.628 340.545 239.617 341.169C238.605 341.793 237.491 342.163 236.347 342.257Z" fill="#191919"/>
<defs>
<linearGradient id="paint0_linear_1_647" x1="291.27" y1="243.562" x2="291.27" y2="325.902" gradientUnits="userSpaceOnUse">
<stop stop-color="#3344DC"/>
<stop offset="1" stop-color="#D95DB0"/>
</linearGradient>
<linearGradient id="paint1_linear_1_647" x1="259.238" y1="373.478" x2="259.238" y2="378.992" gradientUnits="userSpaceOnUse">
<stop stop-color="#3344DC"/>
<stop offset="1" stop-color="#D95DB0"/>
</linearGradient>
<linearGradient id="paint2_linear_1_647" x1="204.345" y1="172.774" x2="204.345" y2="176.593" gradientUnits="userSpaceOnUse">
<stop stop-color="#3344DC"/>
<stop offset="1" stop-color="#D95DB0"/>
</linearGradient>
<linearGradient id="paint3_linear_1_647" x1="137.465" y1="163.526" x2="137.465" y2="177.959" gradientUnits="userSpaceOnUse">
<stop stop-color="#3344DC"/>
<stop offset="1" stop-color="#D95DB0"/>
</linearGradient>
<linearGradient id="paint4_linear_1_647" x1="156.843" y1="122.381" x2="156.843" y2="128.739" gradientUnits="userSpaceOnUse">
<stop stop-color="#3344DC"/>
<stop offset="1" stop-color="#D95DB0"/>
</linearGradient>
<linearGradient id="paint5_linear_1_647" x1="204.334" y1="217.437" x2="204.334" y2="220.727" gradientUnits="userSpaceOnUse">
<stop stop-color="#3344DC"/>
<stop offset="1" stop-color="#D95DB0"/>
</linearGradient>
<linearGradient id="paint6_linear_1_647" x1="204.424" y1="238.963" x2="204.424" y2="243.09" gradientUnits="userSpaceOnUse">
<stop stop-color="#3344DC"/>
<stop offset="1" stop-color="#D95DB0"/>
</linearGradient>
<linearGradient id="paint7_linear_1_647" x1="204.292" y1="195.833" x2="204.292" y2="199.625" gradientUnits="userSpaceOnUse">
<stop stop-color="#3344DC"/>
<stop offset="1" stop-color="#D95DB0"/>
</linearGradient>
<linearGradient id="paint8_linear_1_647" x1="284.337" y1="93.0291" x2="284.337" y2="159.633" gradientUnits="userSpaceOnUse">
<stop stop-color="#3344DC"/>
<stop offset="1" stop-color="#D95DB0"/>
</linearGradient>
<linearGradient id="paint9_linear_1_647" x1="139.619" y1="248.334" x2="139.619" y2="259.543" gradientUnits="userSpaceOnUse">
<stop stop-color="#3344DC"/>
<stop offset="1" stop-color="#D95DB0"/>
</linearGradient>
<linearGradient id="paint10_linear_1_647" x1="24.2951" y1="92.5657" x2="24.2951" y2="327.438" gradientUnits="userSpaceOnUse">
<stop stop-color="#3344DC"/>
<stop offset="1" stop-color="#D95DB0"/>
</linearGradient>
<linearGradient id="paint11_linear_1_647" x1="57.9441" y1="247.827" x2="57.9441" y2="260.154" gradientUnits="userSpaceOnUse">
<stop stop-color="#3344DC"/>
<stop offset="1" stop-color="#D95DB0"/>
</linearGradient>
<linearGradient id="paint12_linear_1_647" x1="97.2231" y1="188.277" x2="97.2231" y2="239.698" gradientUnits="userSpaceOnUse">
<stop stop-color="#3344DC"/>
<stop offset="1" stop-color="#D95DB0"/>
</linearGradient>
<linearGradient id="paint13_linear_1_647" x1="81.6678" y1="324" x2="81.6678" y2="327.487" gradientUnits="userSpaceOnUse">
<stop stop-color="#3344DC"/>
<stop offset="1" stop-color="#D95DB0"/>
</linearGradient>
<linearGradient id="paint14_linear_1_647" x1="54.4657" y1="166.68" x2="54.4657" y2="181.86" gradientUnits="userSpaceOnUse">
<stop stop-color="#3344DC"/>
<stop offset="1" stop-color="#D95DB0"/>
</linearGradient>
<linearGradient id="paint15_linear_1_647" x1="95.135" y1="149.137" x2="95.135" y2="168.914" gradientUnits="userSpaceOnUse">
<stop stop-color="#3344DC"/>
<stop offset="1" stop-color="#D95DB0"/>
</linearGradient>
<linearGradient id="paint16_linear_1_647" x1="99.5132" y1="256.118" x2="99.5132" y2="274.15" gradientUnits="userSpaceOnUse">
<stop stop-color="#3344DC"/>
<stop offset="1" stop-color="#D95DB0"/>
</linearGradient>
<linearGradient id="paint17_linear_1_647" x1="98.5227" y1="174.828" x2="98.5227" y2="248.93" gradientUnits="userSpaceOnUse">
<stop stop-color="#3344DC"/>
<stop offset="1" stop-color="#D95DB0"/>
</linearGradient>
</defs>
</svg>
