<svg width="30" height="29" viewBox="0 0 30 29" fill="none" xmlns="http://www.w3.org/2000/svg">
<path d="M22.9688 0H7.03125C3.148 0 0 2.97563 0 6.64626V21.7111C0 25.3817 3.148 28.3574 7.03125 28.3574H22.9688C26.852 28.3574 30 25.3817 30 21.7111V6.64626C30 2.97563 26.852 0 22.9688 0Z" fill="url(#paint0_radial_1_203)"/>
<path d="M22.9688 0H7.03125C3.148 0 0 2.97563 0 6.64626V21.7111C0 25.3817 3.148 28.3574 7.03125 28.3574H22.9688C26.852 28.3574 30 25.3817 30 21.7111V6.64626C30 2.97563 26.852 0 22.9688 0Z" fill="url(#paint1_radial_1_203)"/>
<path d="M15.0011 3.10156C11.8185 3.10156 11.419 3.11474 10.1691 3.16847C8.92148 3.22252 8.06988 3.40917 7.3248 3.68311C6.55395 3.96602 5.90016 4.34452 5.24883 4.96041C4.59691 5.57619 4.19648 6.19418 3.89625 6.9225C3.60563 7.627 3.40793 8.43231 3.3518 9.61102C3.2959 10.7926 3.28125 11.1703 3.28125 14.1788C3.28125 17.1872 3.29531 17.5636 3.35203 18.7451C3.40945 19.9244 3.60691 20.7293 3.89648 21.4336C4.19602 22.1623 4.59645 22.7803 5.24801 23.3959C5.89922 24.0121 6.55301 24.3915 7.32328 24.6744C8.06895 24.9484 8.92066 25.135 10.168 25.1891C11.418 25.2428 11.8172 25.256 14.9996 25.256C18.1826 25.256 18.5808 25.2428 19.8307 25.1891C21.0783 25.135 21.9308 24.9484 22.6765 24.6744C23.447 24.3915 24.0998 24.0121 24.7509 23.3959C25.4029 22.7803 25.8032 22.1623 26.1035 21.4339C26.3916 20.7293 26.5894 19.9241 26.648 18.7453C26.7041 17.5638 26.7188 17.1872 26.7188 14.1788C26.7188 11.1703 26.7041 10.7928 26.648 9.61124C26.5894 8.43197 26.3916 7.62711 26.1035 6.92283C25.8032 6.19418 25.4029 5.57619 24.7509 4.96041C24.0991 4.3443 23.4472 3.9658 22.6758 3.68322C21.9287 3.40917 21.0766 3.22241 19.8291 3.16847C18.579 3.11474 18.1811 3.10156 14.9974 3.10156H15.0011ZM13.9498 5.09777C14.2618 5.09732 14.61 5.09777 15.0011 5.09777C18.1301 5.09777 18.5009 5.1084 19.7365 5.16146C20.8791 5.21086 21.4992 5.39131 21.9123 5.54296C22.4592 5.74367 22.8491 5.98371 23.259 6.37152C23.6692 6.75922 23.923 7.12842 24.1359 7.64539C24.2964 8.0353 24.4875 8.6215 24.5395 9.70152C24.5957 10.8693 24.6079 11.22 24.6079 14.1762C24.6079 17.1325 24.5957 17.4833 24.5395 18.6509C24.4873 19.7309 24.2964 20.3171 24.1359 20.7072C23.9236 21.2241 23.6692 21.5922 23.259 21.9797C22.8489 22.3674 22.4595 22.6073 21.9123 22.8082C21.4997 22.9605 20.8791 23.1405 19.7365 23.1899C18.5011 23.2429 18.1301 23.2545 15.0011 23.2545C11.8719 23.2545 11.501 23.2429 10.2657 23.1899C9.12316 23.14 8.50301 22.9596 8.08957 22.8079C7.54277 22.6071 7.15207 22.3672 6.74191 21.9795C6.33176 21.5918 6.07793 21.2235 5.865 20.7063C5.70457 20.3163 5.51344 19.7301 5.46141 18.65C5.40527 17.4823 5.39402 17.1316 5.39402 14.1735C5.39402 11.2153 5.40527 10.8665 5.46141 9.69875C5.51367 8.61873 5.70457 8.03253 5.865 7.64207C6.07746 7.1251 6.33176 6.7559 6.74203 6.3682C7.1523 5.9805 7.54277 5.74046 8.08969 5.5393C8.50277 5.38699 9.12316 5.20699 10.2657 5.15736C11.3468 5.11117 11.7657 5.09732 13.9498 5.095V5.09777ZM21.2565 6.93701C20.4802 6.93701 19.8503 7.53185 19.8503 8.26582C19.8503 8.99968 20.4802 9.59507 21.2565 9.59507C22.0329 9.59507 22.6628 8.99968 22.6628 8.26582C22.6628 7.53196 22.0329 6.93657 21.2565 6.93657V6.93701ZM15.0011 8.49013C11.6776 8.49013 8.98301 11.0372 8.98301 14.1788C8.98301 17.3204 11.6776 19.8662 15.0011 19.8662C18.3246 19.8662 21.0183 17.3204 21.0183 14.1788C21.0183 11.0373 18.3244 8.49013 15.0008 8.49013H15.0011ZM15.0011 10.4863C17.1584 10.4863 18.9074 12.1394 18.9074 14.1788C18.9074 16.218 17.1584 17.8712 15.0011 17.8712C12.8438 17.8712 11.0948 16.218 11.0948 14.1788C11.0948 12.1394 12.8436 10.4863 15.0011 10.4863Z" fill="white"/>
<defs>
<radialGradient id="paint0_radial_1_203" cx="0" cy="0" r="1" gradientUnits="userSpaceOnUse" gradientTransform="translate(7.96875 30.5414) rotate(-90) scale(28.1043 27.6533)">
<stop stop-color="#FFDD55"/>
<stop offset="0.1" stop-color="#FFDD55"/>
<stop offset="0.5" stop-color="#FF543E"/>
<stop offset="1" stop-color="#C837AB"/>
</radialGradient>
<radialGradient id="paint1_radial_1_203" cx="0" cy="0" r="1" gradientUnits="userSpaceOnUse" gradientTransform="translate(-5.02512 2.04273) rotate(78.0437) scale(12.5916 54.6584)">
<stop stop-color="#3771C8"/>
<stop offset="0.128" stop-color="#3771C8"/>
<stop offset="1" stop-color="#6600FF" stop-opacity="0"/>
</radialGradient>
</defs>
</svg>
