<svg width="16" height="10" viewBox="0 0 16 10" fill="none" xmlns="http://www.w3.org/2000/svg">
<path fill-rule="evenodd" clip-rule="evenodd" d="M9.28906 8.79832C9.07805 9.00923 8.7919 9.12771 8.49353 9.12771C8.19516 9.12771 7.90901 9.00923 7.698 8.79832L1.33265 2.4342C1.22518 2.33042 1.13946 2.20628 1.08049 2.06903C1.02152 1.93178 0.990477 1.78415 0.989178 1.63478C0.98788 1.4854 1.01635 1.33726 1.07293 1.199C1.1295 1.06074 1.21305 0.935134 1.3187 0.829505C1.42435 0.723875 1.54999 0.640341 1.68827 0.583775C1.82656 0.527209 1.97472 0.498744 2.12413 0.500042C2.27354 0.501341 2.42119 0.532375 2.55847 0.591335C2.69575 0.650295 2.81991 0.736 2.92371 0.843449L8.49353 6.4122L14.0634 0.843449C14.2756 0.638521 14.5598 0.525127 14.8548 0.527691C15.1499 0.530254 15.4321 0.648569 15.6407 0.857153C15.8493 1.06574 15.9677 1.3479 15.9702 1.64287C15.9728 1.93784 15.8594 2.22202 15.6544 2.4342L9.28906 8.79832Z" fill="black"/>
</svg>
