<svg width="34" height="25" viewBox="0 0 34 25" fill="none" xmlns="http://www.w3.org/2000/svg">
<path d="M33.2491 3.80134C33.0541 3.0666 32.6737 2.39677 32.1457 1.85853C31.6178 1.3203 30.9608 0.932444 30.2401 0.733595C27.6017 0 16.9828 0 16.9828 0C16.9828 0 6.36334 0.0222055 3.72488 0.7558C3.00418 0.954661 2.34715 1.34253 1.81922 1.88079C1.29129 2.41905 0.910883 3.08892 0.715885 3.82368C-0.0821854 8.60302 -0.391771 15.8856 0.737799 20.4738C0.932817 21.2085 1.31323 21.8783 1.84116 22.4166C2.36909 22.9548 3.02611 23.3427 3.7468 23.5415C6.38525 24.2751 17.0044 24.2751 17.0044 24.2751C17.0044 24.2751 27.6234 24.2751 30.2618 23.5415C30.9825 23.3427 31.6395 22.9548 32.1675 22.4166C32.6954 21.8784 33.0759 21.2085 33.2709 20.4738C34.1127 15.6877 34.372 8.40953 33.2491 3.80134Z" fill="#FF0000"/>
<path d="M13 17.1891L21.8092 12.0667L13 6.94434V17.1891Z" fill="white"/>
</svg>
