<svg width="200" height="200" viewBox="0 0 200 200" fill="none" xmlns="http://www.w3.org/2000/svg">
<path d="M45.8 21.25C46.6317 21.9747 47.2004 22.9542 47.4174 24.0358C47.6345 25.1174 47.4877 26.2404 47 27.23C46.9112 27.5216 46.8673 27.8251 46.87 28.13C46.87 28.76 47.03 29.96 48.54 31.46C49.27 32.19 49.83 32.71 50.44 33.28C50.94 33.74 51.47 34.22 52.14 34.88C53.44 36.12 54.81 37.58 56.04 39.41C58.59 43.24 60 48.03 60 55C60 69.7 50.23 80 40 80C29.77 80 20 69.7 20 55C20 51.74 20.87 47.85 22.07 44.26C23.27 40.67 24.95 36.94 26.89 33.94C29.2 30.04 32.45 26.77 34.97 24.57C36.3567 23.361 37.7982 22.2165 39.29 21.14L39.73 20.84C40.647 20.2287 41.7402 19.9376 42.8397 20.0117C43.9392 20.0858 44.9734 20.5212 45.8 21.25ZM40 90C46.1148 89.9913 52.0428 87.8918 56.8 84.05C57.2733 85.4566 57.6733 86.8733 58 88.3C60 97 60 107.46 60 114.75V115C60 142.87 56.21 158.68 52.04 167.72C49.94 172.27 47.71 175.17 45.78 176.99C44.9943 177.742 44.1292 178.405 43.2 178.97C42.7739 179.226 42.3294 179.45 41.87 179.64C41.87 179.64 40.74 180 40 180C39.26 180 38.13 179.64 38.13 179.64C37.6706 179.45 37.2261 179.226 36.8 178.97C35.8708 178.405 35.0057 177.742 34.22 176.99C32.29 175.16 30.06 172.27 27.96 167.72C23.79 158.68 20 142.87 20 115V114.75C20 107.45 20 97 22 88.3C22.3267 86.8733 22.7267 85.4566 23.2 84.05C27.9572 87.8918 33.8852 89.9913 40 90ZM90 130C82.85 130 76.04 128.5 69.9 125.8C70.0333 122.24 70.1 118.54 70.1 114.7C76.1571 118.173 83.0178 120 90 120V100C90 94.6956 92.1071 89.6086 95.8579 85.8578C99.6086 82.1071 104.696 80 110 80H130C130.001 72.8972 128.111 65.9222 124.523 59.7919C120.936 53.6616 115.781 48.5971 109.588 45.1189C103.395 41.6406 96.3879 39.8741 89.2863 40.0008C82.1846 40.1275 75.2448 42.143 69.18 45.84C68.5565 42.4844 67.4163 39.2459 65.8 36.24C73.4127 32.0294 81.9922 29.8779 90.6908 29.9981C99.3895 30.1183 107.906 32.506 115.4 36.9253C122.893 41.3446 129.104 47.6426 133.418 55.1969C137.732 62.7512 140.001 71.3005 140 80H160C165.304 80 170.391 82.1071 174.142 85.8578C177.893 89.6086 180 94.6956 180 100V150C180 155.304 177.893 160.391 174.142 164.142C170.391 167.893 165.304 170 160 170H110C104.696 170 99.6086 167.893 95.8579 164.142C92.1071 160.391 90 155.304 90 150V130ZM139 90C137.028 99.6035 132.282 108.417 125.35 115.35C118.417 122.282 109.603 127.028 100 129V150C100 152.652 101.054 155.196 102.929 157.071C104.804 158.946 107.348 160 110 160H160C162.652 160 165.196 158.946 167.071 157.071C168.946 155.196 170 152.652 170 150V100C170 97.3478 168.946 94.8043 167.071 92.9289C165.196 91.0535 162.652 90 160 90H139ZM128.74 90H110C107.348 90 104.804 91.0535 102.929 92.9289C101.054 94.8043 100 97.3478 100 100V118.74C106.917 116.945 113.228 113.334 118.281 108.281C123.334 103.228 126.945 96.9167 128.74 90Z" fill="#F38340"/>
</svg>
