<svg width="200" height="200" viewBox="0 0 200 200" fill="none" xmlns="http://www.w3.org/2000/svg">
<path d="M16.667 183.333V166.667C16.667 166.667 58.3337 150 100 150C141.667 150 183.334 166.667 183.334 166.667V183.333H16.667ZM94.167 75.8334C84.167 43.3334 33.3337 50.8334 33.3337 50.8334C33.3337 50.8334 35.0003 115.833 82.5003 105.833C79.167 81.6667 66.667 75 66.667 75C90.0003 75 91.667 103.333 91.667 103.333V141.667H108.334V106.667C108.334 106.667 108.334 74.1667 133.334 65.8334C133.334 65.8334 116.667 90.8334 116.667 107.5C175 113.333 175 33.3334 175 33.3334C175 33.3334 100.834 25 94.167 75.8334Z" fill="#F38340"/>
</svg>
