<svg width="200" height="200" viewBox="0 0 200 200" fill="none" xmlns="http://www.w3.org/2000/svg">
<path d="M100 175C90.8333 175 82.9861 171.736 76.4583 165.208C69.9306 158.681 66.6667 150.833 66.6667 141.667C66.6667 132.5 69.9306 124.653 76.4583 118.125C82.9861 111.597 90.8333 108.333 100 108.333C109.167 108.333 117.014 111.597 123.542 118.125C130.069 124.653 133.333 132.5 133.333 141.667C133.333 150.833 130.069 158.681 123.542 165.208C117.014 171.736 109.167 175 100 175ZM25.4167 71.6667L13.125 60.2083C24.375 49.2361 37.4306 40.625 52.2917 34.375C67.1528 28.125 83.0556 25 100 25C116.944 25 132.847 28.125 147.708 34.375C162.569 40.625 175.625 49.2361 186.875 60.2083L174.583 71.6667C164.722 62.3611 153.472 55.0361 140.833 49.6917C128.194 44.3472 114.583 41.6722 100 41.6667C85.4167 41.6611 71.8056 44.3361 59.1667 49.6917C46.5278 55.0472 35.2778 62.3722 25.4167 71.6667ZM144.167 100.208C138.333 94.9305 131.667 90.8 124.167 87.8167C116.667 84.8333 108.611 83.3389 100 83.3333C91.3889 83.3278 83.3694 84.8222 75.9417 87.8167C68.5139 90.8111 61.8111 94.9417 55.8333 100.208L43.5417 88.75C51.0417 81.8056 59.6194 76.3889 69.275 72.5C78.9306 68.6111 89.1722 66.6667 100 66.6667C110.828 66.6667 121.036 68.6111 130.625 72.5C140.214 76.3889 148.756 81.8056 156.25 88.75L144.167 100.208Z" fill="#F38340"/>
</svg>
